#!OML:ASF F:\twosubjects\two\wednesday\Session 1\rory1.ASF
:FULLY-SPECIFIED
:DEGREES
198
root 18.7027 18.4834 19.5758 0.465041 3.91122 3.28164
lowerback -1.14953 -2.22952 -4.05859
upperback -0.387356 -2.93024 0.783966
thorax 0.490701 -1.46969 3.02628
lowerneck -9.23982 -2.40297 -4.13099
upperneck 13.9636 -2.22761 -2.70253
head 5.76926 -1.5013 -0.345443
rclavicle -1.758e-015 -7.55382e-015
rhumerus -75.2056 -26.4436 -41.233
rradius 7.6305
rwrist 40.5199
rhand -9.5115 27.1419
rfingers 7.12502
rthumb 16.454 -2.18033
lclavicle -1.758e-015 -7.55382e-015
lhumerus 7.42652 -1.83223 81.0415
lradius 38.6817
lwrist 19.5888
lhand -22.5042 17.6305
lfingers 7.12502
lthumb 3.92188 47.5742
rfemur -28.699 9.55356 15.2986
rtibia 28.1043
rfoot -1.11355 -6.45327
rtoes 0.653629
lfemur 16.7806 -1.83367 -23.5516
ltibia 25.7626
lfoot 6.47495 -2.96946
ltoes -25.2891
199
root 18.6918 18.4857 19.7723 0.0889117 3.41869 2.70776
lowerback -0.458026 -2.12605 -3.44849
upperback -0.552684 -2.826 1.01282
thorax -0.0927436 -1.40377 2.95516
lowerneck -9.09602 -2.30382 -4.16511
upperneck 14.0379 -2.05694 -2.95105
head 5.76557 -1.43932 -0.403686
rclavicle -3.90612e-014 -1.59028e-015
rhumerus -75.2054 -25.8733 -40.9645
rradius 7.80458
rwrist 39.5398
rhand -7.34531 25.5751
rfingers 7.12502
rthumb 18.5387 -3.56154
lclavicle -3.90612e-014 -1.59028e-015
lhumerus 6.74786 -1.65906 80.9819
lradius 39.4047
lwrist 19.7866
lhand -22.3942 18.2274
lfingers 7.12502
lthumb 4.02807 48.1691
rfemur -28.1931 9.08114 16.5083
rtibia 29.0316
rfoot -1.51528 -5.08637
rtoes 2.7654
lfemur 15.8847 -1.33749 -22.823
ltibia 28.6652
lfoot 8.58475 -2.09892
ltoes -23.7487
200
root 18.675 18.4943 19.9709 -0.349788 2.90011 2.4135
lowerback -0.0573492 -1.92112 -3.2333
upperback -0.375437 -2.56406 1.15081
thorax -0.158459 -1.27459 2.99035
lowerneck -9.21782 -2.31374 -4.22843
upperneck 13.8679 -2.05729 -2.96154
head 5.73391 -1.44052 -0.396797
rclavicle 2.56059e-014 -1.35174e-014
rhumerus -74.9225 -26.1599 -40.7451
rradius 7.64646
rwrist 39.5943
rhand -7.09644 24.7537
rfingers 7.12502
rthumb 18.7781 -4.35994
lclavicle 2.56059e-014 -1.35174e-014
lhumerus 6.49305 -1.18489 81.248
lradius 40.2256
lwrist 19.7801
lhand -22.8032 18.0483
lfingers 7.12502
lthumb 3.63319 47.9971
rfemur -27.5408 8.92075 17.3543
rtibia 29.9685
rfoot -1.92525 -3.77438
rtoes 6.17828
lfemur 14.9544 -0.669054 -22.3295
ltibia 31.6522
lfoot 10.7113 -1.34879
ltoes -22.6777
201
root 18.6612 18.5075 20.1626 -0.565776 2.63692 2.60147
lowerback -0.0661727 -1.83335 -3.59012
upperback -0.0417648 -2.44381 1.19995
thorax 0.196865 -1.22637 3.23427
lowerneck -9.413 -2.26184 -4.37275
upperneck 13.4166 -1.98844 -2.81689
head 5.62832 -1.39475 -0.321195
rclavicle -3.04575e-014 -3.57812e-015
rhumerus -74.2256 -26.8212 -40.724
rradius 7.16456
rwrist 41.1655
rhand -9.54417 25.7336
rfingers 7.12502
rthumb 16.4226 -3.59124
lclavicle -3.04575e-014 -3.57812e-015
lhumerus 6.5255 -0.405988 81.6731
lradius 41.0983
lwrist 20.0844
lhand -23.6232 17.376
lfingers 7.12502
lthumb 2.84129 47.3368
rfemur -27.1056 8.56073 17.5535
rtibia 30.8772
rfoot -2.4884 -2.82489
rtoes 8.20197
lfemur 13.6936 -0.154909 -22.372
ltibia 34.6538
lfoot 12.893 -0.614187
ltoes -21.1904
202
root 18.6439 18.5225 20.3531 -0.682288 2.49131 2.56712
lowerback 0.0801524 -1.89917 -3.80644
upperback -0.00646564 -2.53684 1.35883
thorax 0.175458 -1.27361 3.52322
lowerneck -9.23989 -2.09585 -4.51481
upperneck 13.1845 -1.7667 -2.77216
head 5.52674 -1.28415 -0.263308
rclavicle -3.00662e-014 -7.95139e-015
rhumerus -73.5603 -26.8205 -40.7618
rradius 7.00625
rwrist 41.7025
rhand -10.2684 26.0955
rfingers 7.12502
rthumb 15.7252 -3.28556
lclavicle -3.00662e-014 -7.95139e-015
lhumerus 6.07912 -0.0265151 81.6901
lradius 41.7742
lwrist 20.8381
lhand -24.0645 16.5977
lfingers 7.12502
lthumb 2.41506 46.5638
rfemur -26.7752 8.41525 17.9252
rtibia 31.7462
rfoot -3.06624 -2.77348
rtoes 9.16489
lfemur 12.2516 0.215168 -22.1553
ltibia 37.602
lfoot 14.9626 0.798852
ltoes -17.6458
203
root 18.6245 18.5386 20.5395 -0.826681 2.54697 2.26744
lowerback 0.704807 -1.91824 -3.63815
upperback -0.296948 -2.58591 1.45611
thorax -0.471621 -1.2794 3.55931
lowerneck -9.00605 -2.05695 -4.33665
upperneck 13.4556 -1.73382 -2.86056
head 5.56856 -1.27042 -0.316773
rclavicle 3.45388e-015 1.59028e-014
rhumerus -73.8246 -26.492 -40.4614
rradius 7.51293
rwrist 41.0897
rhand -9.13179 26.3203
rfingers 7.12502
rthumb 16.8196 -2.97127
lclavicle 3.45388e-015 1.59028e-014
lhumerus 5.21961 -0.452144 81.4455
lradius 42.2713
lwrist 21.4405
lhand -22.8562 18.2196
lfingers 7.12502
lthumb 3.58194 48.1692
rfemur -26.3095 8.43091 18.5004
rtibia 32.5055
rfoot -3.69947 -3.06957
rtoes 12.4835
lfemur 10.7658 0.43015 -21.6173
ltibia 40.5066
lfoot 16.4371 2.21407
ltoes -15.5183
204
root 18.6102 18.555 20.7208 -0.922705 2.51582 2.62319
lowerback 0.239648 -1.82135 -4.14885
upperback 0.300977 -2.43621 1.35553
thorax 0.40729 -1.2348 3.71232
lowerneck -9.86812 -2.17655 -4.10454
upperneck 13.3083 -1.87766 -2.90752
head 5.66656 -1.33452 -0.389145
rclavicle 1.40578e-014 7.15625e-015
rhumerus -73.1915 -27.5951 -40.4611
rradius 7.6742
rwrist 41.231
rhand -9.66323 27.0781
rfingers 7.12502
rthumb 16.3079 -2.25622
lclavicle 1.40578e-014 7.15625e-015
lhumerus 5.94105 -0.779734 81.409
lradius 42.5086
lwrist 21.7519
lhand -23.3825 17.5696
lfingers 7.12502
lthumb 3.07375 47.5272
rfemur -25.8041 8.39791 18.3183
rtibia 33.1086
rfoot -4.49286 -2.81144
rtoes 16.0738
lfemur 9.2604 0.6717 -21.9324
ltibia 43.2818
lfoot 17.2041 3.40725
ltoes -17.2329
205
root 18.5918 18.5689 20.9008 -1.04375 2.33992 3.04076
lowerback 0.26902 -1.69125 -4.69563
upperback 0.527494 -2.26048 1.2089
thorax 0.622744 -1.15834 3.86661
lowerneck -10.3192 -2.21193 -4.12737
upperneck 13.375 -1.9357 -2.61995
head 5.76715 -1.34689 -0.30571
rclavicle -1.51045e-014 1.66979e-014
rhumerus -72.5918 -28.4892 -40.4564
rradius 7.27909
rwrist 41.8793
rhand -11.3112 27.6079
rfingers 7.12502
rthumb 14.7207 -1.84939
lclavicle -1.51045e-014 1.66979e-014
lhumerus 6.06372 -1.39707 81.2506
lradius 42.7779
lwrist 22.5518
lhand -25.3771 14.9745
lfingers 7.12502
lthumb 1.14733 44.9512
rfemur -25.1703 8.45611 18.1552
rtibia 33.5017
rfoot -5.1764 -2.68455
rtoes 16.0414
lfemur 7.79079 1.03577 -22.3303
ltibia 45.9926
lfoot 17.3294 5.12451
ltoes -19.9159
206
root 18.5828 18.588 21.0942 -1.29874 2.52278 2.6807
lowerback 0.501392 -1.73849 -4.21412
upperback 0.571762 -2.33247 1.17647
thorax 0.524139 -1.1903 3.56851
lowerneck -10.3052 -2.17805 -4.23747
upperneck 13.4977 -1.93791 -2.15747
head 5.80831 -1.32139 -0.143156
rclavicle -1.87401e-014 -3.57812e-015
rhumerus -72.1542 -29.007 -40.501
rradius 7.02367
rwrist 42.3038
rhand -12.5065 28.3335
rfingers 7.12502
rthumb 13.5688 -1.20432
lclavicle -1.87401e-014 -3.57812e-015
lhumerus 5.67986 -1.60534 81.136
lradius 43.0391
lwrist 22.8424
lhand -24.1943 16.096
lfingers 7.12502
lthumb 2.28971 46.0634
rfemur -24.1205 8.14433 18.8438
rtibia 33.6332
rfoot -5.92362 -2.90414
rtoes 15.2066
lfemur 6.49943 1.149 -21.8554
ltibia 48.7457
lfoot 16.6383 6.85364
ltoes -20.3168
207
root 18.5832 18.6097 21.2829 -1.54024 2.5767 1.56072
lowerback 0.67864 -1.657 -2.79907
upperback 0.614429 -2.22481 1.33643
thorax 0.409722 -1.12881 2.9439
lowerneck -10.245 -2.26984 -4.17669
upperneck 13.5224 -2.08837 -2.06847
head 5.80701 -1.38488 -0.13658
rclavicle -6.36887e-015 9.54166e-015
rhumerus -72.1155 -29.5417 -40.2108
rradius 7.27057
rwrist 42.3614
rhand -12.8369 29.2902
rfingers 7.12502
rthumb 13.2504 -0.268588
lclavicle -6.36887e-015 9.54166e-015
lhumerus 5.31576 -0.97424 81.7379
lradius 43.097
lwrist 21.7585
lhand -23.9628 16.6317
lfingers 7.12502
lthumb 2.51326 46.5966
rfemur -23.0315 7.92657 20.3043
rtibia 33.4526
rfoot -6.53556 -3.0028
rtoes 14.8488
lfemur 5.09059 1.36535 -20.5506
ltibia 51.6232
lfoot 15.7129 7.48839
ltoes -19.4022
208
root 18.5713 18.6272 21.4368 -1.50597 2.34625 0.495822
lowerback 0.820518 -1.4168 -1.67475
upperback 0.598425 -1.90127 1.60957
thorax 0.262577 -0.960808 2.59798
lowerneck -10.28 -2.45851 -4.29447
upperneck 13.5371 -2.32984 -2.01768
head 5.82246 -1.50472 -0.121698
rclavicle 1.12608e-014 -1.55052e-014
rhumerus -72.0356 -30.3091 -39.7341
rradius 7.73921
rwrist 41.8972
rhand -12.3188 29.9035
rfingers 7.12502
rthumb 13.7498 0.377786
lclavicle 1.12608e-014 -1.55052e-014
lhumerus 5.13244 -2.17178 81.7108
lradius 43.1812
lwrist 22.1756
lhand -23.9881 16.7859
lfingers 7.12502
lthumb 2.48885 46.7511
rfemur -22.3847 8.30558 21.68
rtibia 33.078
rfoot -6.7585 -3.33497
rtoes 13.7327
lfemur 3.03572 1.81207 -19.2109
ltibia 54.6229
lfoot 14.8492 7.46718
ltoes -18.4533
209
root 18.5574 18.6412 21.5852 -1.37408 2.2396 0.24066
lowerback 0.994144 -1.34395 -1.54727
upperback 0.515619 -1.8043 1.75411
thorax 0.0755903 -0.909199 2.68069
lowerneck -10.2458 -2.50575 -4.57091
upperneck 13.4832 -2.37355 -1.87155
head 5.80616 -1.52785 -0.0336895
rclavicle 2.45375e-016 -5.1684e-015
rhumerus -71.6298 -30.9504 -39.6026
rradius 8.86453
rwrist 42.046
rhand -11.4257 27.3691
rfingers 7.12502
rthumb 14.6104 -2.09625
lclavicle 2.45375e-016 -5.1684e-015
lhumerus 4.76245 -1.91038 82.0863
lradius 43.1462
lwrist 21.2375
lhand -23.7523 17.0663
lfingers 7.12502
lthumb 2.71658 47.0288
rfemur -21.832 8.46833 22.1368
rtibia 32.7226
rfoot -6.9452 -3.62332
rtoes 13.0597
lfemur 0.737524 1.98159 -18.8662
ltibia 57.5286
lfoot 13.3593 8.02741
ltoes -16.3672
210
root 18.5517 18.653 21.7431 -1.36635 2.31002 0.170902
lowerback 1.26216 -1.38085 -1.51607
upperback 0.476584 -1.85488 1.78904
thorax -0.111438 -0.931937 2.70745
lowerneck -10.3299 -2.51644 -4.52454
upperneck 13.4682 -2.37199 -1.99849
head 5.81381 -1.5343 -0.0820594
rclavicle 2.168e-015 -2.66371e-014
rhumerus -70.8854 -31.6278 -39.6982
rradius 9.12027
rwrist 42.3799
rhand -12.2586 27.4497
rfingers 7.12502
rthumb 13.8078 -2.07201
lclavicle 2.168e-015 -2.66371e-014
lhumerus 4.33176 -1.66409 82.3172
lradius 43.0128
lwrist 20.5938
lhand -23.3496 16.9709
lfingers 7.12502
lthumb 3.10544 46.928
rfemur -21.0943 8.28231 22.3435
rtibia 32.4348
rfoot -7.31135 -3.64149
rtoes 13.505
lfemur -1.31427 1.89562 -18.8357
ltibia 60.1961
lfoot 11.5816 8.48821
ltoes -14.466
211
root 18.558 18.6795 21.9085 -1.35438 2.49773 0.101848
lowerback 1.40218 -1.41336 -1.2838
upperback 0.429666 -1.89577 1.73853
thorax -0.244893 -0.950113 2.53027
lowerneck -10.3311 -2.5944 -4.4408
upperneck 13.5109 -2.4793 -2.07291
head 5.82655 -1.58863 -0.128164
rclavicle -3.28305e-015 3.97569e-016
rhumerus -70.358 -32.182 -39.6316
rradius 9.30399
rwrist 42.3665
rhand -12.3921 27.4648
rfingers 7.12502
rthumb 13.6791 -2.06561
lclavicle -3.28305e-015 3.97569e-016
lhumerus 3.73313 -1.9469 82.4935
lradius 42.9598
lwrist 20.8119
lhand -24.3704 15.9435
lfingers 7.12502
lthumb 2.11959 45.9127
rfemur -20.4578 7.86793 22.4923
rtibia 32.2305
rfoot -7.76334 -3.50318
rtoes 13.7989
lfemur -3.14487 1.74587 -18.8825
ltibia 62.4813
lfoot 10.1046 8.52207
ltoes -12.9184
212
root 18.5671 18.713 22.0762 -1.23507 2.50082 -0.153888
lowerback 1.40779 -1.34583 -0.828511
upperback 0.286145 -1.79774 1.73528
thorax -0.414481 -0.898252 2.27258
lowerneck -10.062 -2.70542 -4.67197
upperneck 13.4735 -2.65783 -1.74776
head 5.7786 -1.66107 0.00115674
rclavicle 7.0817e-016 -5.1684e-015
rhumerus -69.9846 -32.7999 -39.4161
rradius 9.60727
rwrist 42.1058
rhand -11.6301 27.3579
rfingers 7.12502
rthumb 14.4134 -2.12161
lclavicle 7.0817e-016 -5.1684e-015
lhumerus 2.91585 -2.61341 82.6154
lradius 43.0116
lwrist 21.3297
lhand -25.0931 16.7529
lfingers 7.12502
lthumb 1.42168 46.7279
rfemur -19.9613 7.63422 22.835
rtibia 32.0567
rfoot -8.21473 -3.45319
rtoes 13.7484
lfemur -5.04031 1.72504 -18.7189
ltibia 64.5162
lfoot 8.72473 8.49084
ltoes -11.8563
